<svg viewBox="0 0 512 512" xmlns="http://www.w3.org/2000/svg">
    <path d="M512 256c0 141.387-114.613 256-256 256-49.613 0-95.91-14.105-135.137-38.535a257.163 257.163 0 0 1-63.582-56.059C21.461 373.363 0 317.187 0 256c0-4.453.113-8.871.344-13.27 1.89-37.011 11.64-71.953 27.605-103.175a256.567 256.567 0 0 1 29.477-45.13C104.363 36.802 175.879 0 256 0c29.465 0 57.762 4.973 84.105 14.137C440.172 48.934 512 144.082 512 256zm0 0" fill="rgb(90, 164, 204)"/>
    <path d="M512 256c0 23.898-3.27 47.02-9.402 68.965-22.625 81.101-84.188 145.96-163.278 173.168C313.2 507.12 285.172 512 256 512c-49.613 0-95.91-14.105-135.137-38.535C85.38 355.504 325.621 282.09 285.906 228.184c-43.886-59.559-172.41 17.23-183.383-70.532C93.457 85.074 246.188 40.363 340.105 14.137c24.91 8.664 48.063 21.066 68.805 36.531 40.742 30.394 72.14 72.621 89.078 121.605 1.285 3.7 2.489 7.438 3.594 11.223.012.02.012.031.012.05 1.16 3.907 2.226 7.86 3.187 11.84C509.504 214.82 512 235.122 512 256zm0 0" fill="rgb(112, 206, 255)"/>
    <path d="M497.988 172.273c-29.11-55.246-206.597-8.988-206.597-45.183 0-32.633 52.64-62.442 117.52-76.422a260.055 260.055 0 0 1 17.273 14.086 257.33 257.33 0 0 1 46.214 54.418 255.205 255.205 0 0 1 25.59 53.101zm0 0" fill="rgb(90, 164, 204)"/>
    <path d="M472.398 119.172c-39.171.281-71.304-.188-71.304-15.59 0-13.773 9.375-27.043 25.09-38.828a257.33 257.33 0 0 1 46.214 54.418zm0 0" fill="rgb(189, 232, 255)"/>
    <path d="M502.598 324.965a254.496 254.496 0 0 1-33.188 72.473c-22.496 33.886-52.851 62.109-88.473 82.054a255.32 255.32 0 0 1-41.617 18.64c-47.144 0-117.675-113.222 34.344-127.327 60.168-5.582 101.254-24.735 128.934-45.84zm0 0" fill="rgb(56, 103, 128"/>
    <path d="M469.41 397.438c-22.496 33.886-52.851 62.109-88.473 82.054-12.84-33.246 1.13-73.957 88.336-82.043.043 0 .094-.012.137-.012zm0 0" fill="rgb(90, 164, 204)"/>
    <path d="M155.691 464.566c-7.664-28.562 9.75-89.164 77.32-121.906 67.571-32.742-19.503 24.38-32.042 55.031-12.54 30.649-11.145 78.368-26.121 78.368-14.977 0-19.157-11.493-19.157-11.493zm0 0M57.281 417.406a256.578 256.578 0 0 1-27.105-40.73 253.809 253.809 0 0 1-27.281-82.098A256.393 256.393 0 0 1 0 256c0-4.453.113-8.871.344-13.27 35.965 18.141 110.09-3.105 124 38.63 16.726 50.195-46.028 94-67.063 136.046zm0 0" fill="rgb(189, 232, 255)"/>
    <path d="M30.176 376.676a253.809 253.809 0 0 1-27.281-82.098c17.398 3.27 31.492 10.02 36.812 25.965 6.531 19.594.95 38.21-9.531 56.133zm0 0M172.406 237.473c-20.504-10.7 75.239-3.899 79.414 7.316 4.176 11.211-54.855 67.395-67.918 54.332-13.062-13.059 36.57-36.57-11.496-61.648zm0 0" fill="rgb(90, 164, 204)"/>
    <path d="M27.95 139.555a256.567 256.567 0 0 1 29.476-45.13c-1.703 24.43 3 50.305 8.402 74.087 5.758 25.336-16.582-.512-37.879-28.957zm0 0" fill="rgb(56, 103, 128"/>
    <path d="M360.488 193.59c-22.164-22.168 102.403 12.539 91.953 60.601-10.449 48.067-100.312 64.786-100.312 37.618s56.426-50.157 8.36-98.22zm0 0" fill="rgb(189, 232, 255)"/>
</svg>
